<?xml version="1.0" encoding="UTF-8"?>
<svg version="1.1" viewBox="0 0 2000 2000" width="1280" height="1280" xmlns="http://www.w3.org/2000/svg">
<path transform="translate(0)" d="m0 0h2e3v2e3h-2e3z" fill="#ddd"/>
<path transform="translate(1300,901)" d="m0 0h19l14 3 12 5 9 7 8 9 7 14 3 16v25l-4 22-6 18-7 14-8 11-8 9-10 7-10 6-14 5-11 2h-23l-14-3-11-5-11-8-6-7-8-16-3-13v-26l3-19 7-21 9-17 8-10 9-9 13-9 11-5 9-3z" fill="#111"/>
<path transform="translate(1420,903)" d="m0 0h51l3 7 13 45 16 55 2 5 5-32 7-35 9-41 1-3 2-1h30l8 1-2 13-9 42-16 76-8 36-1 1h-51l-4-10-22-78-8-28-3 20-4 26-14 67-1 3h-40l1-10 9-42 17-80 8-36z" fill="#111"/>
<path transform="translate(897,903)" d="m0 0h55l1 1 13 155v13h-43l-1-2-1-29h-49l-3 3-12 27-1 1h-47l1-4 15-29 14-27 19-38 10-19 15-30 9-17 2-4z" fill="#111"/>
<path transform="translate(1101,903)" d="m0 0h40l21 2 16 5 9 6 5 4 7 10 4 12 1 8v12l-4 17-8 13-5 6-10 7-12 6-15 4-8 1h-22l-2 13-9 43h-45l1-9 22-104 11-51 1-4z" fill="#111"/>
<path transform="translate(461,903)" d="m0 0h113l1 2-6 25-7 11-9 11-13 17-11 14-14 18-11 14-12 15-3 4 61 1 1 2-4 15-4 19-1 1h-119l2-13 4-15 9-13 14-18 10-13 14-18 12-16 14-18 6-8-13 1h-39l-3-1 2-12 5-24z" fill="#111"/>
<path transform="translate(601,903)" d="m0 0h90l9 1-1 9-6 27-6 1h-49l-5 25h50l-1 9-6 27-1 1-51 1-5 26-1 4h54l-1 10-6 27-1 1h-99l1-9 12-57 12-56 9-43z" fill="#111"/>
<path transform="translate(720,903)" d="m0 0h117l-1 9-6 25-2 4h-36l-1 8-15 73-8 39-3 11h-45l1-8 21-100 5-22-36-1 1-8 6-29z" fill="#111"/>
<path transform="translate(1302,938)" d="m0 0 10 1 6 3 6 8 3 12v13l-3 19-5 16-8 13-4 5-10 7-8 2h-7l-9-3-5-4-4-11v-25l4-17 6-15 8-12 9-8z" fill="#ddd"/>
<path transform="translate(615,1097)" d="m0 0h52l8 2 3 6 1 5v29l-3 10-6 3-20 1h-23l-17-1-6-3-3-7v-32l3-10 3-2z" fill="#111"/>
<path transform="translate(713,1095)" d="m0 0h12l14 2 5 4 3 7 1 5v25l-3 9-5 5-10 3h-25l-9-3-5-6-2-6-1-8v-13l2-12 4-6 5-4 3-1z" fill="#DADADA"/>
<path transform="translate(568,1098)" d="m0 0h11l4 3 8-1 1 1-1 7-2 5-3 15-4 8-6 8-10 7-10 3h-17l-10-3-1-3 13-3 2-2-8-5-2-9-5-5v-5l3-1-4-9 1-7 2-2 10 9 7 3 7 2 4 2 2-10 3-5z" fill="#111"/>
<path transform="translate(991,991)" d="m0 0h64l-1 10-6 26h-63l1-11z" fill="#111"/>
<path transform="translate(1617,860)" d="m0 0 11 1 8 6 4 5 2 5v11l-4 8-7 6-9 3-10-1-8-6-5-7-1-4v-9l4-9 8-7z" fill="#ddd"/>
<path transform="translate(918,933)" d="m0 0h1v35l1 36h-33l2-6 10-21 11-25 6-14z" fill="#ddd"/>
<path transform="translate(713,1095)" d="m0 0h12l14 2 5 4 3 7 1 5v25l-3 9-5 5-10 3h-25l-9-3-5-6-2-6-1-8v-13l2-12 4-6 5-4 3-1zm-2 6-10 2-5 5-2 6v22l3 9 3 3 10 2h16l9-2 5-4 2-5 1-17-2-13-6-7-6-1z" fill="#111"/>
<path transform="translate(1138,940)" d="m0 0 11 1 6 4 3 4 1 3-1 13-6 9-10 5-13 1-1-3 6-26 2-9z" fill="#ddd"/>
<path transform="translate(714,1110)" d="m0 0h8l6 3 4 5 1 3v8l-3 7-5 4-9 1-7-2-4-5-2-6 1-10 4-5z" fill="#111"/>
<path transform="translate(1617,860)" d="m0 0 11 1 8 6 4 5 2 5v11l-4 8-7 6-9 3-10-1-8-6-5-7-1-4v-9l4-9 8-7zm2 5-7 2-8 9-1 3v7l4 8 6 5 3 1h7l7-4 6-7v-12l-4-7-6-4z" fill="#111"/>
<path transform="translate(1620,868)" d="m0 0 6 1 3 3v4l-12 2v7l3 3h9l2 2-5 6-7 1-8-4-3-6v-9l4-6z" fill="#111"/>
<path transform="translate(717,1116)" d="m0 0 6 1 4 4 1 6-3 5-5 3h-6l-4-4-1-3v-7l5-4z" fill="#ddd"/>
<path transform="translate(631,1113)" d="m0 0 5 2 13 7 2 3-10 6-8 4h-2l-1-4z" fill="#ddd"/>
</svg>
